<svg width="252" height="35" viewBox="0 0 252 35" fill="none" xmlns="http://www.w3.org/2000/svg">
<rect width="252" height="35" fill="#F5F5F5"/>
<path d="M8.8 31.72C7.12 31.72 5.64 31.4267 4.36 30.84C3.08 30.2533 2.09333 29.44 1.4 28.4C0.706667 27.3333 0.36 26.1067 0.36 24.72C0.36 23.5467 0.6 22.48 1.08 21.52C1.58667 20.56 2.25333 19.8 3.08 19.24C3.93333 18.68 4.86667 18.4 5.88 18.4C6.81333 18.4 7.6 18.64 8.24 19.12C8.88 19.5733 9.28 20.2133 9.44 21.04C8.05333 21.04 6.94667 21.4133 6.12 22.16C5.29333 22.88 4.88 23.8667 4.88 25.12C4.88 26.2667 5.22667 27.1867 5.92 27.88C6.61333 28.5733 7.53333 28.92 8.68 28.92C10.0933 28.92 11.2533 28.4533 12.16 27.52C13.0933 26.56 13.56 25.36 13.56 23.92C13.56 22.6667 13.2133 21.48 12.52 20.36C11.8267 19.24 10.7867 17.88 9.4 16.28C7.96 14.6267 6.86667 13.2133 6.12 12.04C5.4 10.84 5.04 9.53333 5.04 8.12C5.04 6.73333 5.42667 5.49333 6.2 4.4C6.97333 3.28 8.04 2.4 9.4 1.76C10.76 1.12 12.2933 0.799998 14 0.799998C16.16 0.799998 17.88 1.30667 19.16 2.32C20.4667 3.33333 21.12 4.69333 21.12 6.4C21.12 7.52 20.84 8.42667 20.28 9.12C19.72 9.81333 18.9867 10.16 18.08 10.16C17.0667 10.16 16.2533 9.74667 15.64 8.92C16.1467 8.54666 16.5467 8.05333 16.84 7.44C17.1333 6.82666 17.28 6.18667 17.28 5.52C17.28 4.66667 17.0267 3.98667 16.52 3.48C16.0133 2.97333 15.32 2.72 14.44 2.72C13.3733 2.72 12.4933 3.10667 11.8 3.88C11.1333 4.62667 10.8 5.58667 10.8 6.76C10.8 7.82667 11.1067 8.82667 11.72 9.76C12.3333 10.6667 13.2933 11.84 14.6 13.28C15.6667 14.4267 16.52 15.4133 17.16 16.24C17.8267 17.0667 18.3867 18.0267 18.84 19.12C19.32 20.1867 19.56 21.3467 19.56 22.6C19.56 24.3067 19.08 25.8533 18.12 27.24C17.1867 28.6267 15.8933 29.72 14.24 30.52C12.6133 31.32 10.8 31.72 8.8 31.72ZM33.6125 11.76C36.0658 11.76 38.1058 12.5467 39.7325 14.12C41.3858 15.6933 42.2125 17.6133 42.2125 19.88C42.2125 23.32 41.1992 26.08 39.1725 28.16C37.1725 30.2133 34.7458 31.24 31.8925 31.24C29.0392 31.24 26.7725 30.4267 25.0925 28.8C23.4392 27.1733 22.6125 25.16 22.6125 22.76C22.6125 19.4 23.6392 16.7333 25.6925 14.76C27.7725 12.76 30.4125 11.76 33.6125 11.76ZM32.8125 15C31.5592 15 30.5058 15.72 29.6525 17.16C28.7992 18.6 28.3325 20.4133 28.2525 22.6C28.2525 24.1467 28.5592 25.4267 29.1725 26.44C29.8125 27.4533 30.7725 27.96 32.0525 27.96C33.3325 27.96 34.3992 27.2533 35.2525 25.84C36.1325 24.4267 36.5725 22.8133 36.5725 21C36.5725 19.1867 36.2658 17.7467 35.6525 16.68C35.0392 15.56 34.0925 15 32.8125 15ZM55.7138 17C55.7138 15.8267 55.1671 15.24 54.0738 15.24C53.0071 15.24 52.1538 15.9333 51.5138 17.32C54.3938 19.5867 55.8338 22.1333 55.8338 24.96C55.8338 27.0133 55.2604 28.5733 54.1138 29.64C52.9671 30.7067 51.5271 31.24 49.7938 31.24C48.0604 31.24 46.7938 30.7067 45.9938 29.64C45.1938 28.5467 44.7938 27.1733 44.7938 25.52C44.7938 25.0133 44.8071 24.64 44.8338 24.4L46.2338 12.2C47.1938 11.9067 48.1671 11.76 49.1538 11.76C50.7804 11.76 51.5938 12.36 51.5938 13.56V13.64C52.6604 12.3867 54.0204 11.76 55.6738 11.76C56.8738 11.76 57.8071 12.04 58.4738 12.6C59.1404 13.1333 59.4738 13.8533 59.4738 14.76C59.4738 15.6667 59.1271 16.4133 58.4338 17C57.7671 17.56 56.8871 17.84 55.7938 17.84C55.7404 17.84 55.6871 17.84 55.6338 17.84C55.6871 17.5467 55.7138 17.2667 55.7138 17ZM53.2338 24.76C53.2338 23.2133 52.4338 21.6667 50.8338 20.12C50.3538 23.96 50.1138 25.8933 50.1138 25.92C50.1138 27.04 50.5671 27.6 51.4738 27.6C52.6471 27.6 53.2338 26.6533 53.2338 24.76ZM72.1981 17C72.1981 15.8267 71.6515 15.24 70.5581 15.24C69.4915 15.24 68.6381 15.9333 67.9981 17.32C70.8781 19.5867 72.3181 22.1333 72.3181 24.96C72.3181 27.0133 71.7448 28.5733 70.5981 29.64C69.4515 30.7067 68.0115 31.24 66.2781 31.24C64.5448 31.24 63.2781 30.7067 62.4781 29.64C61.6781 28.5467 61.2781 27.1733 61.2781 25.52C61.2781 25.0133 61.2915 24.64 61.3181 24.4L62.7181 12.2C63.6781 11.9067 64.6515 11.76 65.6381 11.76C67.2648 11.76 68.0781 12.36 68.0781 13.56V13.64C69.1448 12.3867 70.5048 11.76 72.1581 11.76C73.3581 11.76 74.2915 12.04 74.9581 12.6C75.6248 13.1333 75.9581 13.8533 75.9581 14.76C75.9581 15.6667 75.6115 16.4133 74.9181 17C74.2515 17.56 73.3715 17.84 72.2781 17.84C72.2248 17.84 72.1715 17.84 72.1181 17.84C72.1715 17.5467 72.1981 17.2667 72.1981 17ZM69.7181 24.76C69.7181 23.2133 68.9181 21.6667 67.3181 20.12C66.8381 23.96 66.5981 25.8933 66.5981 25.92C66.5981 27.04 67.0515 27.6 67.9581 27.6C69.1315 27.6 69.7181 26.6533 69.7181 24.76ZM94.6825 31.2C92.2292 31.2 90.6025 30.3467 89.8025 28.64C88.4158 30.3733 86.6292 31.24 84.4425 31.24C82.2825 31.24 80.4558 30.5067 78.9625 29.04C77.4958 27.5733 76.7625 25.64 76.7625 23.24C76.7625 19.7467 77.7892 16.96 79.8425 14.88C81.8958 12.8 84.4958 11.76 87.6425 11.76C87.7225 11.76 87.8025 11.76 87.8825 11.76C89.2158 11.76 90.4425 11.9867 91.5625 12.44C92.2825 11.9867 93.1492 11.76 94.1625 11.76C95.2025 11.76 95.9492 11.8933 96.4025 12.16C96.1625 14.1333 95.9092 16.08 95.6425 18C95.3758 19.8933 95.1892 21.24 95.0825 22.04C94.8425 23.8533 94.7225 25.16 94.7225 25.96C94.7225 27.0267 95.1492 27.56 96.0025 27.56C96.6692 27.56 97.3758 27.12 98.1225 26.24C98.8692 25.3333 99.5225 23.92 100.083 22C100.856 22.6933 101.389 23.4667 101.683 24.32C100.909 26.8533 99.8692 28.64 98.5625 29.68C97.2558 30.6933 95.9625 31.2 94.6825 31.2ZM88.2425 14.88C86.5358 14.88 85.1758 15.5333 84.1625 16.84C83.1758 18.12 82.5892 20.04 82.4025 22.6C82.3758 22.84 82.3625 23.0667 82.3625 23.28C82.3625 24.5867 82.6692 25.6267 83.2825 26.4C83.9225 27.1733 84.7358 27.56 85.7225 27.56C87.4025 27.56 88.6692 26.3733 89.5225 24L90.4825 15.36C89.7092 15.04 88.9625 14.88 88.2425 14.88ZM101.837 1.56C102.45 0.919998 103.197 0.599998 104.077 0.599998C104.957 0.599998 105.703 0.919998 106.317 1.56C106.957 2.17333 107.277 2.92 107.277 3.8C107.277 4.68 106.957 5.42667 106.317 6.04C105.703 6.65333 104.957 6.96 104.077 6.96C103.197 6.96 102.45 6.65333 101.837 6.04C101.223 5.42667 100.917 4.68 100.917 3.8C100.917 2.92 101.223 2.17333 101.837 1.56ZM100.197 13.28C100.463 12.8 100.97 12.44 101.717 12.2C102.463 11.9333 103.197 11.8 103.917 11.8C104.663 11.8 105.317 11.8933 105.877 12.08C104.837 20.1067 104.317 24.16 104.317 24.24C104.183 24.7733 104.117 25.2267 104.117 25.6C104.117 25.9467 104.143 26.2533 104.197 26.52C104.303 27.2133 104.783 27.56 105.637 27.56C106.517 27.56 107.317 27 108.037 25.88C108.783 24.7333 109.343 23.44 109.717 22C109.903 22.1067 110.197 22.4267 110.597 22.96C110.997 23.4933 111.237 23.8933 111.317 24.16C110.783 26.2933 109.877 28.0133 108.597 29.32C107.317 30.6267 105.783 31.28 103.997 31.28C102.21 31.28 100.877 30.84 99.9966 29.96C99.1432 29.08 98.7166 27.9467 98.7166 26.56C98.7166 26.2667 98.7299 25.96 98.7566 25.64L100.197 13.28ZM119.334 31L120.854 17.72C120.854 16.9733 120.668 16.36 120.294 15.88C119.948 15.3733 119.321 15.12 118.414 15.12C117.508 15.12 116.761 15.56 116.174 16.44C115.588 17.2933 115.214 18.2 115.054 19.16C114.121 25.8 113.601 29.7467 113.494 31H108.134L110.334 12.2C111.454 11.9067 112.308 11.76 112.894 11.76C114.574 11.76 115.494 12.32 115.654 13.44C116.961 12.32 118.388 11.76 119.934 11.76C123.028 11.76 125.001 12.68 125.854 14.52C127.161 12.6533 129.028 11.72 131.454 11.72C133.241 11.72 134.654 12.1867 135.694 13.12C136.734 14.0267 137.254 15.1733 137.254 16.56C137.254 16.96 137.174 17.6667 137.014 18.68C136.401 22.68 136.094 25.0267 136.094 25.72C136.094 26.9733 136.508 27.6 137.334 27.6C138.028 27.6 138.761 27.1467 139.534 26.24C140.334 25.3067 140.974 23.88 141.454 21.96C142.361 22.92 142.908 23.68 143.094 24.24C141.708 28.88 139.254 31.2 135.734 31.2C134.081 31.2 132.854 30.6933 132.054 29.68C131.254 28.6667 130.854 27.6 130.854 26.48L131.814 17.64C131.814 16.92 131.628 16.32 131.254 15.84C130.881 15.36 130.281 15.12 129.454 15.12C128.654 15.12 127.948 15.4267 127.334 16.04C126.721 16.6533 126.294 17.44 126.054 18.4C125.254 25.1733 124.734 29.3733 124.494 31H119.334ZM143.243 1.56C143.856 0.919998 144.603 0.599998 145.483 0.599998C146.363 0.599998 147.109 0.919998 147.723 1.56C148.363 2.17333 148.683 2.92 148.683 3.8C148.683 4.68 148.363 5.42667 147.723 6.04C147.109 6.65333 146.363 6.96 145.483 6.96C144.603 6.96 143.856 6.65333 143.243 6.04C142.629 5.42667 142.323 4.68 142.323 3.8C142.323 2.92 142.629 2.17333 143.243 1.56ZM141.603 13.28C141.869 12.8 142.376 12.44 143.123 12.2C143.869 11.9333 144.603 11.8 145.323 11.8C146.069 11.8 146.723 11.8933 147.283 12.08C146.243 20.1067 145.723 24.16 145.723 24.24C145.589 24.7733 145.523 25.2267 145.523 25.6C145.523 25.9467 145.549 26.2533 145.603 26.52C145.709 27.2133 146.189 27.56 147.043 27.56C147.923 27.56 148.723 27 149.443 25.88C150.189 24.7333 150.749 23.44 151.123 22C151.309 22.1067 151.603 22.4267 152.003 22.96C152.403 23.4933 152.643 23.8933 152.723 24.16C152.189 26.2933 151.283 28.0133 150.003 29.32C148.723 30.6267 147.189 31.28 145.403 31.28C143.616 31.28 142.283 30.84 141.403 29.96C140.549 29.08 140.123 27.9467 140.123 26.56C140.123 26.2667 140.136 25.96 140.163 25.64L141.603 13.28ZM174.37 31.68C172.29 31.68 171.25 30.7867 171.25 29C171.25 28.4133 171.33 27.7467 171.49 27C171.676 26.2267 171.93 25.24 172.25 24.04C172.623 22.7867 172.903 21.72 173.09 20.84C173.276 19.96 173.37 19.1733 173.37 18.48C173.37 16.6667 172.57 15.76 170.97 15.76C170.543 15.76 170.103 15.8133 169.65 15.92L166.45 31H160.69L166.13 5.56L172.05 4.76L170.09 14H170.41C171.45 14 172.41 13.64 173.29 12.92C174.17 12.2 174.85 11.3067 175.33 10.24C175.836 9.14667 176.09 8.08 176.09 7.04C176.09 5.81333 175.716 4.81333 174.97 4.04C174.25 3.24 173.156 2.84 171.69 2.84C169.53 2.84 167.636 3.22667 166.01 4C164.383 4.77333 163.116 5.89333 162.21 7.36C161.33 8.82667 160.89 10.56 160.89 12.56C160.89 13.5467 160.983 14.24 161.17 14.64C161.356 15.0133 161.45 15.2267 161.45 15.28C160.01 15.28 158.93 14.9867 158.21 14.4C157.516 13.7867 157.17 12.7867 157.17 11.4C157.17 9.69333 157.863 8.04 159.25 6.44C160.663 4.81333 162.463 3.50667 164.65 2.52C166.836 1.50666 169.023 0.999998 171.21 0.999998C173.21 0.999998 174.89 1.29333 176.25 1.88C177.61 2.46667 178.623 3.25333 179.29 4.24C179.956 5.2 180.29 6.25333 180.29 7.4C180.29 8.65333 179.903 9.90667 179.13 11.16C178.356 12.4133 177.303 13.44 175.97 14.24C176.983 14.5333 177.69 15.0267 178.09 15.72C178.516 16.3867 178.73 17.2267 178.73 18.24C178.73 19.0133 178.636 19.84 178.45 20.72C178.263 21.5733 177.996 22.64 177.65 23.92C177.436 24.7467 177.236 25.56 177.05 26.36C176.863 27.16 176.77 27.8267 176.77 28.36C176.77 28.9733 176.903 29.52 177.17 30C177.463 30.48 177.85 30.8133 178.33 31C176.703 31.4533 175.383 31.68 174.37 31.68ZM185.313 1.56C185.926 0.919998 186.673 0.599998 187.553 0.599998C188.433 0.599998 189.18 0.919998 189.793 1.56C190.433 2.17333 190.753 2.92 190.753 3.8C190.753 4.68 190.433 5.42667 189.793 6.04C189.18 6.65333 188.433 6.96 187.553 6.96C186.673 6.96 185.926 6.65333 185.313 6.04C184.7 5.42667 184.393 4.68 184.393 3.8C184.393 2.92 184.7 2.17333 185.313 1.56ZM183.673 13.28C183.94 12.8 184.446 12.44 185.193 12.2C185.94 11.9333 186.673 11.8 187.393 11.8C188.14 11.8 188.793 11.8933 189.353 12.08C188.313 20.1067 187.793 24.16 187.793 24.24C187.66 24.7733 187.593 25.2267 187.593 25.6C187.593 25.9467 187.62 26.2533 187.673 26.52C187.78 27.2133 188.26 27.56 189.113 27.56C189.993 27.56 190.793 27 191.513 25.88C192.26 24.7333 192.82 23.44 193.193 22C193.38 22.1067 193.673 22.4267 194.073 22.96C194.473 23.4933 194.713 23.8933 194.793 24.16C194.26 26.2933 193.353 28.0133 192.073 29.32C190.793 30.6267 189.26 31.28 187.473 31.28C185.686 31.28 184.353 30.84 183.473 29.96C182.62 29.08 182.193 27.9467 182.193 26.56C182.193 26.2667 182.206 25.96 182.233 25.64L183.673 13.28ZM206.571 23.84C205.744 26 204.544 27.7733 202.971 29.16C201.424 30.52 199.651 31.2 197.651 31.2C195.651 31.2 194.144 30.5467 193.131 29.24C192.144 27.9067 191.651 26.3867 191.651 24.68C191.651 24.3333 191.664 23.9867 191.691 23.64L193.051 12.24C193.904 11.92 194.811 11.76 195.771 11.76C197.531 11.76 198.411 12.4133 198.411 13.72C198.411 13.7733 198.184 15.56 197.731 19.08C197.304 22.5733 197.091 24.6 197.091 25.16C197.091 26.68 197.824 27.44 199.291 27.44C200.544 27.44 201.598 26.7333 202.451 25.32C203.944 22.76 204.731 19.8667 204.811 16.64H204.451C203.331 16.64 202.478 16.3867 201.891 15.88C201.224 15.2933 200.891 14.5867 200.891 13.76C200.891 12.9333 201.144 12.2667 201.651 11.76C202.264 11.2267 202.998 10.96 203.851 10.96C205.878 10.96 207.144 12.0133 207.651 14.12C208.451 14.0133 209.024 13.9067 209.371 13.8V16.08L207.891 16.32V17C207.864 19.4 207.424 21.68 206.571 23.84ZM203.171 13.76C203.171 14.2133 203.558 14.44 204.331 14.44C204.411 14.44 204.491 14.44 204.571 14.44C204.384 13.72 204.104 13.36 203.731 13.36C203.358 13.36 203.171 13.4933 203.171 13.76ZM227.495 31.2C225.042 31.2 223.415 30.3467 222.615 28.64C221.228 30.3733 219.442 31.24 217.255 31.24C215.095 31.24 213.268 30.5067 211.775 29.04C210.308 27.5733 209.575 25.64 209.575 23.24C209.575 19.7467 210.602 16.96 212.655 14.88C214.708 12.8 217.308 11.76 220.455 11.76C220.535 11.76 220.615 11.76 220.695 11.76C222.028 11.76 223.255 11.9867 224.375 12.44C225.095 11.9867 225.962 11.76 226.975 11.76C228.015 11.76 228.762 11.8933 229.215 12.16C228.975 14.1333 228.722 16.08 228.455 18C228.188 19.8933 228.002 21.24 227.895 22.04C227.655 23.8533 227.535 25.16 227.535 25.96C227.535 27.0267 227.962 27.56 228.815 27.56C229.482 27.56 230.188 27.12 230.935 26.24C231.682 25.3333 232.335 23.92 232.895 22C233.668 22.6933 234.202 23.4667 234.495 24.32C233.722 26.8533 232.682 28.64 231.375 29.68C230.068 30.6933 228.775 31.2 227.495 31.2ZM221.055 14.88C219.348 14.88 217.988 15.5333 216.975 16.84C215.988 18.12 215.402 20.04 215.215 22.6C215.188 22.84 215.175 23.0667 215.175 23.28C215.175 24.5867 215.482 25.6267 216.095 26.4C216.735 27.1733 217.548 27.56 218.535 27.56C220.215 27.56 221.482 26.3733 222.335 24L223.295 15.36C222.522 15.04 221.775 14.88 221.055 14.88ZM248.329 18.76C250.436 20.3067 251.489 22.1333 251.489 24.24C251.489 26.3467 250.662 28.04 249.009 29.32C247.356 30.6 245.276 31.24 242.769 31.24C241.142 31.24 239.782 30.84 238.689 30.04C237.622 29.2133 237.089 28.2 237.089 27C237.089 25.8 237.489 24.8533 238.289 24.16C239.089 23.44 240.089 23 241.289 22.84C240.729 23.64 240.449 24.4133 240.449 25.16C240.449 25.88 240.702 26.4667 241.209 26.92C241.716 27.3733 242.356 27.6 243.129 27.6C243.902 27.6 244.542 27.32 245.049 26.76C245.556 26.1733 245.809 25.5067 245.809 24.76C245.809 23.5333 245.236 22.44 244.089 21.48C243.396 20.92 242.649 20.4 241.849 19.92C241.049 19.4133 240.622 19.1467 240.569 19.12C240.462 19.04 240.356 18.9733 240.249 18.92C239.769 19.48 239.076 20.2533 238.169 21.24C237.262 22.2 236.542 22.9733 236.009 23.56C234.516 25.1867 233.676 26.5467 233.489 27.64C233.436 27.8533 233.409 28.2667 233.409 28.88C233.409 29.4667 233.582 30.08 233.929 30.72C234.302 31.36 234.742 31.84 235.249 32.16C235.756 32.48 236.249 32.7333 236.729 32.92C237.236 33.1333 237.662 33.28 238.009 33.36C238.382 33.44 238.569 33.4933 238.569 33.52C238.569 33.7067 238.276 33.92 237.689 34.16C236.596 34.56 235.449 34.76 234.249 34.76C233.076 34.76 231.929 34.3333 230.809 33.48C229.289 32.3067 228.529 30.7467 228.529 28.8C228.529 27.6 228.836 26.4133 229.449 25.24C230.542 23.16 233.102 20.3067 237.129 16.68C236.142 15.6933 235.649 14.64 235.649 13.52C235.649 12.4 236.062 11.4533 236.889 10.68C237.742 9.90667 238.742 9.52 239.889 9.52C240.929 9.52 241.836 9.93333 242.609 10.76C243.116 11.32 243.369 12.0267 243.369 12.88C243.369 13.7333 243.089 14.6933 242.529 15.76C245.382 17.04 247.316 18.04 248.329 18.76ZM239.649 14.24C240.289 13.5733 240.609 13.0933 240.609 12.8C240.609 12.1333 240.316 11.7733 239.729 11.72C239.062 11.72 238.729 12.0933 238.729 12.84C238.729 13.2933 239.036 13.76 239.649 14.24Z" fill="black"/>
</svg>
