<svg width="260" height="260" viewBox="0 0 260 260" fill="none" xmlns="http://www.w3.org/2000/svg">
<rect width="260" height="260" fill="#E5E5E5"/>
<rect width="260" height="260" rx="45" fill="black"/>
<path d="M122.983 82.4189C122.593 84.4209 121.641 86.3984 120.127 88.3516C118.662 90.2559 117.002 91.8916 115.146 93.2588C114.902 93.5029 114.414 93.7715 113.682 94.0645C112.998 94.3574 112.241 94.6748 111.411 95.0166C110.63 95.3096 109.849 95.5781 109.067 95.8223C108.286 96.0664 107.676 96.2129 107.236 96.2617C106.846 96.3594 106.528 96.335 106.284 96.1885C106.089 96.042 105.894 95.8711 105.698 95.6758C105.503 95.4805 105.259 95.3096 104.966 95.1631C104.722 94.9678 104.355 94.8701 103.867 94.8701C103.281 94.8701 102.915 94.748 102.769 94.5039C102.671 94.2109 102.744 93.6982 102.988 92.9658C103.086 92.7217 103.257 92.3799 103.501 91.9404C103.745 91.501 104.136 90.9395 104.673 90.2559C105.063 89.8164 105.381 89.3281 105.625 88.791C105.918 88.2539 105.967 87.7656 105.771 87.3262C105.625 86.8379 105.161 86.4473 104.38 86.1543C103.599 85.8613 102.378 85.7148 100.718 85.7148C99.0088 85.7148 96.8115 85.9346 94.126 86.374C91.1963 86.7646 88.1445 87.4971 84.9707 88.5713C81.8457 89.6455 78.7939 90.8906 75.8154 92.3066C72.8857 93.7227 70.1758 95.2363 67.6855 96.8477C65.1953 98.459 63.1445 100.046 61.5332 101.608C59.9707 103.122 58.9697 104.562 58.5303 105.93C58.0908 107.248 58.457 108.322 59.6289 109.152C60.6543 109.885 62.2168 110.52 64.3164 111.057C66.416 111.545 68.833 112.009 71.5674 112.448C74.3018 112.839 77.2314 113.278 80.3564 113.767C83.4814 114.206 86.582 114.743 89.6582 115.378C92.7832 116.013 95.7373 116.794 98.5205 117.722C101.353 118.649 103.843 119.797 105.991 121.164C107.505 122.189 108.774 123.166 109.8 124.094C110.825 125.021 111.655 125.949 112.29 126.877C112.925 127.756 113.438 128.635 113.828 129.514C114.219 130.344 114.561 131.198 114.854 132.077C115.049 132.614 115.391 133.225 115.879 133.908C116.416 134.543 116.978 135.324 117.563 136.252C118.149 137.18 118.687 138.254 119.175 139.475C119.663 140.646 119.98 142.038 120.127 143.649C120.322 146.872 119.663 149.924 118.149 152.805C116.685 155.686 114.756 158.347 112.363 160.788C110.02 163.229 107.407 165.427 104.526 167.38C101.646 169.284 98.8867 170.871 96.25 172.141C93.9551 173.264 91.5137 174.313 88.9258 175.29C86.3379 176.267 83.6768 177.121 80.9424 177.854C78.208 178.537 75.4248 179.074 72.5928 179.465C69.8096 179.904 67.0508 180.124 64.3164 180.124C59.7754 180.124 55.5029 179.489 51.499 178.22C47.5439 176.999 44.1016 174.924 41.1719 171.994C39.7559 170.48 38.7305 168.967 38.0957 167.453C37.4609 165.891 37.1436 164.353 37.1436 162.839C37.1436 161.032 37.5098 159.274 38.2422 157.565C38.9746 155.856 39.9268 154.245 41.0986 152.731C42.2705 151.218 43.5645 149.875 44.9805 148.703C46.3965 147.482 47.7881 146.506 49.1553 145.773C51.0596 144.699 53.0371 143.674 55.0879 142.697C57.1875 141.672 59.2871 140.769 61.3867 139.987C63.4863 139.157 65.5859 138.474 67.6855 137.937C69.7852 137.399 71.8115 137.058 73.7646 136.911C74.5947 136.813 75.6445 136.716 76.9141 136.618C78.1836 136.521 79.3799 136.472 80.5029 136.472C81.2354 136.472 81.8457 136.667 82.334 137.058C82.8223 137.448 83.0176 137.79 82.9199 138.083C82.6758 138.62 82.2363 138.889 81.6016 138.889C81.0156 138.889 80.3076 138.986 79.4775 139.182C78.5498 139.426 77.6221 139.597 76.6943 139.694C75.7666 139.792 74.9365 139.963 74.2041 140.207C68.6377 141.477 63.9258 143.088 60.0684 145.041C56.2598 146.994 53.208 148.972 50.9131 150.974C48.667 152.976 47.1289 154.88 46.2988 156.687C45.4688 158.444 45.2246 159.787 45.5664 160.715C46.0547 162.033 46.958 163.059 48.2764 163.791C49.5947 164.523 51.084 165.061 52.7441 165.402C54.4043 165.695 56.0889 165.866 57.7979 165.915C59.5068 165.964 60.9717 165.939 62.1924 165.842C65.0244 165.695 68.1738 165.28 71.6406 164.597C75.1562 163.913 78.6963 163.01 82.2607 161.887C85.874 160.764 89.3896 159.445 92.8076 157.932C96.2256 156.369 99.2529 154.685 101.89 152.878C104.526 151.022 106.65 149.045 108.262 146.945C109.873 144.797 110.679 142.551 110.679 140.207C110.679 139.426 110.557 138.669 110.312 137.937C110.117 137.155 109.824 136.35 109.434 135.52C108.701 134.104 107.31 132.907 105.259 131.931C103.208 130.905 100.742 130.051 97.8613 129.367C95.0293 128.635 91.9287 128 88.5596 127.463C85.2393 126.877 81.9434 126.291 78.6719 125.705C75.4492 125.119 72.373 124.46 69.4434 123.728C66.5137 122.995 64.0479 122.092 62.0459 121.018C59.7998 119.797 58.1396 118.601 57.0654 117.429C56.04 116.208 55.4541 114.694 55.3076 112.888C55.2588 112.692 55.1123 112.351 54.8682 111.862C54.624 111.374 54.3311 110.861 53.9893 110.324C53.6963 109.787 53.4033 109.274 53.1104 108.786C52.8174 108.298 52.5977 107.907 52.4512 107.614C51.6699 106.198 51.2793 104.66 51.2793 103C51.2793 101.145 51.6943 99.2402 52.5244 97.2871C53.4033 95.334 54.4775 93.6494 55.7471 92.2334C58.0908 89.5479 61.167 87.0576 64.9756 84.7627C68.833 82.4678 73.0322 80.4658 77.5732 78.7568C82.1143 77.0479 86.7773 75.6807 91.5625 74.6553C96.3965 73.5811 100.962 72.9707 105.259 72.8242C107.017 72.7754 108.994 72.8975 111.191 73.1904C113.389 73.4834 115.415 74.0205 117.271 74.8018C119.175 75.5342 120.688 76.5352 121.812 77.8047C122.935 79.0254 123.325 80.5635 122.983 82.4189ZM152.28 173.386C152.329 174.069 152.134 174.753 151.694 175.437C151.304 176.071 150.815 176.657 150.229 177.194C149.692 177.731 149.131 178.146 148.545 178.439C148.008 178.781 147.593 178.977 147.3 179.025C146.616 179.123 145.859 179.05 145.029 178.806C144.199 178.562 143.564 178.244 143.125 177.854C142.783 177.561 142.539 177.219 142.393 176.828C142.295 176.389 142.173 175.778 142.026 174.997C141.782 173.874 141.538 172.971 141.294 172.287C141.099 171.555 140.928 170.944 140.781 170.456C140.635 169.919 140.488 169.431 140.342 168.991C140.244 168.552 140.171 168.015 140.122 167.38C139.585 161.423 139.268 155.49 139.17 149.582C139.072 143.625 139.121 137.912 139.316 132.443C139.512 126.975 139.805 121.896 140.195 117.209C140.635 112.473 141.05 108.371 141.44 104.904C141.88 101.389 142.271 98.6055 142.612 96.5547C142.954 94.5039 143.174 93.4053 143.271 93.2588C143.418 92.8682 143.833 92.502 144.517 92.1602C145.249 91.8184 146.079 91.5742 147.007 91.4277C147.69 91.3301 148.203 91.2324 148.545 91.1348C148.887 91.0371 149.18 90.9395 149.424 90.8418C149.668 90.6953 149.937 90.5732 150.229 90.4756C150.571 90.3291 151.084 90.1582 151.768 89.9629C152.354 89.8164 152.695 90.1094 152.793 90.8418C152.891 91.5742 152.866 92.917 152.72 94.8701C152.573 96.8232 152.354 99.4844 152.061 102.854C151.816 106.223 151.621 110.471 151.475 115.598C152.012 115.695 152.598 115.744 153.232 115.744C153.916 115.744 154.648 115.744 155.43 115.744C158.018 115.744 161.021 115.476 164.438 114.938C167.856 114.401 171.274 113.449 174.692 112.082C178.159 110.666 181.431 108.762 184.507 106.369C187.583 103.928 190.073 100.852 191.978 97.1406C192.271 96.4082 192.417 95.5537 192.417 94.5771C192.417 93.21 191.953 91.8672 191.025 90.5488C190.146 89.1816 188.73 87.9854 186.777 86.96C184.824 85.8857 182.285 85.0312 179.16 84.3965C176.035 83.7129 172.275 83.3711 167.881 83.3711C165.293 83.3711 162.607 83.5664 159.824 83.957C157.041 84.3477 154.209 84.9824 151.328 85.8613C148.447 86.7402 145.542 87.8877 142.612 89.3037C139.683 90.7197 136.802 92.4775 133.97 94.5771C133.823 94.7236 133.555 94.8457 133.164 94.9434C132.773 94.9922 132.383 95.0166 131.992 95.0166C131.26 95.0166 130.552 94.748 129.868 94.2109C129.185 93.6738 128.843 93.1123 128.843 92.5264C128.843 92.2334 128.94 91.9893 129.136 91.7939C129.331 91.5498 129.551 91.3301 129.795 91.1348C130.088 90.9395 130.332 90.7686 130.527 90.6221C130.723 90.4756 130.82 90.3535 130.82 90.2559C130.82 90.1094 130.723 89.9141 130.527 89.6699C130.332 89.4258 130.234 89.1084 130.234 88.7178C130.234 88.6689 130.112 88.6201 129.868 88.5713C129.624 88.5225 129.331 88.4492 128.989 88.3516C128.696 88.2539 128.428 88.1074 128.184 87.9121C127.939 87.668 127.817 87.3506 127.817 86.96C127.817 86.667 127.964 86.4229 128.257 86.2275C128.599 86.0322 128.989 85.7637 129.429 85.4219C130.015 85.0801 131.04 84.4209 132.505 83.4443C133.97 82.4678 135.728 81.3691 137.778 80.1484C139.878 78.9277 142.197 77.6582 144.736 76.3398C147.275 75.0215 149.937 73.8252 152.72 72.751C155.552 71.6279 158.433 70.7246 161.362 70.041C164.292 69.3086 167.148 68.9424 169.932 68.9424C172.764 68.9424 175.474 69.4307 178.062 70.4072C180.649 71.3838 183.066 72.6777 185.312 74.2891C187.559 75.9004 189.585 77.7803 191.392 79.9287C193.198 82.0283 194.736 84.25 196.006 86.5938C197.324 88.8887 198.325 91.2324 199.009 93.625C199.741 95.9688 200.107 98.1904 200.107 100.29C200.107 102.731 199.302 105.075 197.69 107.321C196.128 109.567 194.102 111.667 191.611 113.62C189.17 115.573 186.484 117.355 183.555 118.967C180.625 120.529 177.842 121.896 175.205 123.068C172.715 124.143 170.151 124.924 167.515 125.412C164.927 125.852 162.534 126.12 160.337 126.218C162.778 127.146 165.342 128.415 168.027 130.026C170.762 131.638 173.447 133.884 176.084 136.765C177.402 138.229 178.696 140.207 179.966 142.697C181.235 145.139 182.505 147.849 183.774 150.827C185.044 153.806 186.313 156.955 187.583 160.275C188.901 163.596 190.269 166.892 191.685 170.163C193.149 173.386 194.688 176.462 196.299 179.392C197.959 182.37 199.717 184.982 201.572 187.229C203.477 189.475 205.503 191.257 207.651 192.575C209.849 193.942 212.241 194.626 214.829 194.626C217.173 194.626 219.712 194.016 222.446 192.795C225.229 191.623 228.232 189.597 231.455 186.716C232.676 185.739 233.457 184.958 233.799 184.372C234.189 183.835 234.458 183.566 234.604 183.566C234.751 183.566 234.849 183.664 234.897 183.859C234.995 184.055 235.044 184.25 235.044 184.445C235.093 184.689 235.117 184.909 235.117 185.104C235.117 185.3 235.142 185.422 235.19 185.471V185.617C235.19 185.861 235.093 186.081 234.897 186.276C235.044 186.276 235.142 186.35 235.19 186.496C235.288 186.691 235.337 186.911 235.337 187.155C235.337 187.546 235.239 187.937 235.044 188.327C234.702 188.815 234.287 189.67 233.799 190.891C233.311 192.16 232.651 193.576 231.821 195.139C231.04 196.701 230.063 198.312 228.892 199.973C227.72 201.682 226.279 203.244 224.57 204.66C222.91 206.076 220.908 207.224 218.564 208.103C216.221 209.03 213.511 209.494 210.435 209.494C208.579 209.494 206.65 209.25 204.648 208.762C202.695 208.273 200.718 207.419 198.716 206.198C196.763 205.026 194.81 203.464 192.856 201.511C190.903 199.558 189.023 197.116 187.217 194.187C186.289 192.771 185.312 190.549 184.287 187.521C183.311 184.494 182.261 181.076 181.138 177.268C180.063 173.41 178.916 169.357 177.695 165.109C176.475 160.861 175.156 156.784 173.74 152.878C172.324 148.972 170.786 145.456 169.126 142.331C167.515 139.157 165.781 136.74 163.926 135.08C162.9 134.201 161.851 133.347 160.776 132.517C159.702 131.687 158.628 130.979 157.554 130.393C156.528 129.758 155.503 129.27 154.478 128.928C153.452 128.537 152.5 128.342 151.621 128.342H151.328C151.328 130.979 151.328 133.786 151.328 136.765C151.377 139.743 151.401 142.746 151.401 145.773C151.45 148.752 151.499 151.682 151.548 154.562C151.597 157.443 151.646 160.129 151.694 162.619C151.792 165.061 151.89 167.233 151.987 169.138C152.085 170.993 152.183 172.409 152.28 173.386Z" fill="#FFFEFE"/>
</svg>
